<svg width="52" height="22" viewBox="0 0 52 22" fill="none" xmlns="http://www.w3.org/2000/svg">
<g clip-path="url(#clip0_47_562)">
<path fill-rule="evenodd" clip-rule="evenodd" d="M30.8176 8.99135L30.8919 10.1609C30.9012 10.2259 30.9012 10.2722 30.9012 10.3651C30.9012 10.4579 30.9197 10.4671 30.9197 10.56C30.9197 10.8199 30.9662 11.089 30.9662 11.3582L30.994 11.7387C31.0125 11.878 31.0125 12.0079 31.0125 12.1471C31.0125 12.2585 31.0404 12.4163 31.0496 12.5277L31.0775 13.1032C31.0775 13.1959 31.096 13.2145 31.096 13.2981L31.1425 14.0963C31.1425 14.1891 31.161 14.1983 31.161 14.2912C31.161 14.5232 31.1888 14.6346 31.1888 14.8852L31.226 15.2843L29.5739 15.2842L29.8802 13.7064C29.9266 13.4372 29.9916 13.1866 30.0379 12.9174C30.0565 12.7875 30.0844 12.6668 30.1122 12.5276C30.1401 12.3884 30.1679 12.2677 30.1865 12.1285L30.4928 10.5506C30.5484 10.2908 30.5856 10.0216 30.6505 9.76168L30.762 9.1769C30.7712 9.13977 30.7712 9.13051 30.7805 9.07482L30.8083 8.97274L30.8176 8.99126L30.8176 8.99135ZM39.7651 11.7573H38.1594C38.0944 11.7573 38.1222 11.7016 38.1222 11.6273L38.3079 8.68506C38.3079 8.59224 38.3264 8.58298 38.3264 8.49943L38.3821 7.51559C38.3913 7.45059 38.3913 7.39494 38.3913 7.32065C38.3913 7.15361 38.4378 6.73591 38.4378 6.54101C38.4378 6.44823 38.4563 6.42963 38.4563 6.34611L38.4749 5.94701C38.4841 5.83563 38.5027 5.66855 38.5027 5.54791H40.2198C40.6932 5.54791 40.5539 5.90062 40.5539 6.2719L40.3405 9.59469C40.3405 9.66894 40.3497 9.7339 40.3405 9.80819C40.294 10.2259 40.294 10.7642 40.2476 11.1726C40.2198 11.4232 40.3219 11.748 39.765 11.748V11.7573L39.7651 11.7573ZM28.5343 20.4077C28.5715 20.2314 28.6086 20.0364 28.6457 19.8601C28.6829 19.6651 28.72 19.4888 28.7572 19.2939C28.7943 19.1083 28.8314 18.9226 28.8685 18.7278C28.9057 18.5421 28.9428 18.3472 28.9892 18.1709L31.4395 18.1708C31.4395 18.3286 31.4859 18.5792 31.4859 18.737C31.4952 19.0155 31.5416 19.3031 31.5509 19.5816C31.5602 19.7673 31.5973 19.9622 31.5973 20.1571C31.5973 20.2406 31.588 20.4077 31.6623 20.4077H37.519C37.5932 20.4077 37.5654 20.2778 37.584 20.0921C37.6025 19.8601 37.6025 19.6095 37.6303 19.3774C37.6396 19.3218 37.6303 19.2568 37.6303 19.2011L37.6953 18.3008C37.7139 18.1337 37.7046 17.9202 37.7325 17.7532C37.7603 17.5768 37.751 17.3912 37.7696 17.2055C37.7789 17.1499 37.7696 17.0941 37.7789 17.0292L37.8717 15.5905C37.8717 15.5162 37.8717 15.4699 37.881 15.3956C37.9088 15.1914 37.9274 14.8666 37.9274 14.6624H38.3543C38.4193 14.6624 38.41 14.746 38.4286 14.8016L38.9019 16.7878C38.9576 17.0199 39.0226 17.2891 39.0783 17.5211C39.264 18.245 39.4403 18.9598 39.5981 19.693L39.728 20.2406C39.7465 20.3056 39.7373 20.3984 39.8023 20.3984H43.4871C43.4871 20.3148 43.4221 20.1292 43.3943 20.0364L43.0137 18.6163C42.8652 18.013 42.6796 17.419 42.5311 16.8157C42.3825 16.2217 42.1969 15.6184 42.0577 15.0244C42.0298 14.9037 41.9834 14.783 41.9556 14.6624C42.4104 14.6624 42.7538 14.5417 43.0044 14.3375C43.4221 14.0034 43.682 13.4929 43.6727 12.9267L43.8769 9.6782C43.8954 9.57612 43.8862 9.44618 43.9047 9.35336L43.9419 8.69432C43.9419 8.62007 43.9512 8.60155 43.9604 8.54581C43.9697 8.48086 43.9604 8.43443 43.9697 8.36948C43.9976 8.21171 43.9882 8.04463 43.9976 7.88682L44.0439 7.23713C44.0532 7.07932 44.0532 6.89368 44.0718 6.73591L44.1275 5.75207H45.2319C45.2319 6.05835 45.1855 6.35537 45.1855 6.66165L45.1205 7.57124C45.102 7.72901 45.1113 7.87752 45.102 8.03529L45.037 8.94487C45.037 9.11195 45.0277 9.26972 45.0092 9.40893L44.7865 13.0659C44.7679 13.1958 44.7679 13.3907 44.7586 13.5207C44.7586 13.6043 44.7401 13.6321 44.7401 13.7342L44.443 18.5606C44.4338 18.6999 44.4059 18.8669 44.4059 19.0062L44.3503 19.925C44.3317 20.0642 44.3224 20.2313 44.3224 20.3891H47.9608C48.0351 20.3891 48.0072 20.287 48.0072 20.2035C48.0072 20.0549 48.0444 19.9065 48.0444 19.7394L48.1186 18.5885C48.1372 18.4678 48.1465 18.2729 48.1465 18.1337C48.1465 18.0501 48.165 18.013 48.165 17.9016C48.165 17.7902 48.1836 17.7624 48.1836 17.6696C48.1836 17.549 48.1928 17.3355 48.2114 17.2148C48.2392 17.057 48.2207 16.8992 48.2392 16.7414C48.2485 16.6022 48.2671 16.4444 48.2671 16.2959L48.3042 15.8319C48.3042 15.7297 48.3135 15.6926 48.3228 15.6184L48.3599 14.9037C48.3784 14.6345 48.4156 14.2633 48.4249 13.9941L48.4713 13.0659C48.4806 12.9267 48.5084 12.7689 48.5084 12.6204C48.5084 12.4626 48.5363 12.3048 48.5456 12.1563C48.5549 11.8315 48.5827 11.5531 48.592 11.2282L48.9168 6.18826C48.9261 6.1047 48.9261 6.03975 48.9261 5.94693C48.9261 5.86337 48.9447 5.82628 48.9447 5.7149H51.3579C51.2929 5.44575 51.2464 5.16729 51.1815 4.87957L50.9309 3.62654C50.903 3.47803 50.8752 3.34808 50.8473 3.19961C50.8195 3.06967 50.7917 2.92116 50.7638 2.79121C50.7359 2.6427 50.6895 2.50345 50.6895 2.35498H44.0067C43.9975 2.41997 43.9789 2.4664 43.9603 2.52205C43.9047 2.67983 43.8304 2.8562 43.7933 3.01397H43.7561C43.7376 2.94898 43.6726 2.90255 43.6262 2.85616C43.5241 2.75408 43.4035 2.68913 43.2828 2.62413C42.9765 2.4385 42.4939 2.35498 42.0854 2.35498H35.0871C35.0871 2.60561 35.05 2.80051 35.05 3.03254C35.05 3.10683 35.0407 3.13466 35.0407 3.18105C35.0314 3.24604 35.0407 3.30169 35.0314 3.35742C35.0221 3.4502 35.0129 3.59875 35.0036 3.69157C34.9943 3.74722 35.0036 3.80295 35.0036 3.85861L34.9479 4.71254C34.92 4.91674 34.9107 5.47365 34.8922 5.73351L34.8644 6.23473C34.8644 6.41106 34.8272 6.55957 34.8272 6.72661L34.7251 8.24879C34.7159 8.52725 34.6695 8.81497 34.6787 9.09343C34.6787 9.37188 34.6416 9.6596 34.6323 9.93806L34.5024 11.9429C34.5024 12.342 34.4374 12.7504 34.4374 13.1495H34.4189C34.4189 12.8153 34.2982 12.1841 34.2703 11.8129L34.2425 11.5901C34.2332 11.4974 34.2332 11.4509 34.224 11.3674L33.9084 8.70363C33.8248 8.11885 33.7877 7.50628 33.6949 6.93081L33.6392 6.48532L33.1659 2.47567C33.1473 2.30859 33.1287 2.36428 32.776 2.36428L29.2861 2.36424L28.655 4.97235C28.1631 6.93077 27.7083 8.89844 27.2163 10.8662C27.1607 11.0797 27.1049 11.3024 27.0585 11.5159L26.0283 15.7576L25.9447 16.0917L24.9887 20.0178C24.9794 20.0456 24.9052 20.3426 24.9052 20.3426C24.9145 20.3891 24.9052 20.3705 24.9608 20.3705H28.5343V20.4076L28.5343 20.4077Z" fill="black"/>
<path fill-rule="evenodd" clip-rule="evenodd" d="M1.47852 18.4866C1.48782 18.403 1.50635 18.3195 1.52495 18.2452L1.5806 17.939C1.5899 17.8925 1.5899 17.8369 1.60847 17.7812C1.61773 17.7348 1.62699 17.6976 1.63629 17.6605C1.6456 17.577 1.66412 17.4935 1.67342 17.4007C1.68272 17.3171 1.71055 17.2336 1.71985 17.1687C1.71985 17.113 1.80341 16.6396 1.82193 16.6025C1.82193 16.5282 1.93335 15.8322 1.95188 15.795C1.96118 15.6651 2.00753 15.5165 2.01683 15.3866C2.02613 15.2381 2.08182 15.0432 2.10039 14.8947C2.10969 14.7648 2.14682 14.5977 2.16538 14.4677C2.17468 14.3935 2.1839 14.3378 2.20251 14.2543C2.21181 14.1986 2.23037 14.1428 2.23037 14.0686C2.2582 13.9758 2.2675 13.7995 2.29533 13.7252C2.30463 13.586 2.34176 13.4467 2.36032 13.3075C2.36958 13.2518 2.37884 13.2147 2.38815 13.1497C2.39745 13.1033 2.38815 13.0662 2.41601 13.0476C2.41601 12.927 2.4624 12.8063 2.4624 12.7042C2.49027 12.5464 2.5274 12.3794 2.54596 12.2216C2.56452 12.1102 2.58309 12.0081 2.60165 11.8967C2.61091 11.8596 2.62017 11.7761 2.62947 11.7389C2.63878 11.6833 2.64804 11.6647 2.64804 11.609C2.6573 11.5255 2.67586 11.442 2.69443 11.3584C2.70373 11.2934 2.73156 11.1913 2.73156 11.1357C2.75012 11.0429 2.76872 10.9407 2.77799 10.8572C2.78729 10.6715 2.86154 10.486 2.86154 10.2911C2.88007 10.2446 2.90797 10.0869 2.90797 10.0404C2.9265 9.9476 2.9451 9.84552 2.9544 9.76196L3.03796 9.25148C3.04722 9.21435 3.04722 9.20505 3.04722 9.16792C3.04722 9.14936 3.04722 9.14936 3.05652 9.1308L3.06583 9.11223C3.06583 8.97302 3.11222 8.80595 3.13078 8.676C3.13078 8.62035 3.17721 8.35116 3.19577 8.32329C3.19577 8.20265 3.2329 8.15626 3.2329 8.04484C3.2422 7.99841 3.27933 7.83137 3.27933 7.77568C3.27933 7.71073 3.29785 7.6829 3.30716 7.61791L3.38141 7.22807C3.38141 7.10743 3.39997 7.05169 3.41858 6.94031C3.42784 6.90318 3.45571 6.72681 3.46497 6.68046C3.47427 6.5969 3.49283 6.54121 3.5021 6.44843C3.5114 6.38344 3.58565 5.86365 3.61352 5.83583C3.61352 5.75227 3.62278 5.73375 3.64134 5.65949C3.65065 5.5945 3.68777 5.26965 3.71564 5.24179C3.71564 5.13971 3.73416 5.06545 3.75277 4.96333C3.77129 4.87051 3.77129 4.80556 3.79916 4.7313L3.90128 4.14657C3.90128 4.07227 3.98484 3.57109 4.00336 3.54326C4.00336 3.45971 4.07761 3.01422 4.10544 2.95853C4.10544 2.89353 4.15187 2.60581 4.17043 2.56865C4.17043 2.48513 4.19826 2.33666 4.21686 2.2531C4.21686 2.19741 4.33751 1.51059 4.34677 1.47342C4.34677 1.34352 4.3932 1.18571 4.41176 1.05576C4.41176 0.981505 4.42102 1.00007 4.43028 0.944336H24.6177L24.5249 1.5569C24.5064 1.64972 24.5342 1.59403 24.4878 1.63115L24.4971 1.67758C24.4692 1.81679 24.3949 2.4294 24.3485 2.49435C24.3578 2.57791 24.2743 3.13478 24.2371 3.19047C24.2464 3.28325 24.1629 3.74738 24.1351 3.85873L24.0794 4.17431L23.903 5.13963C23.9123 5.20458 23.8288 5.71506 23.8009 5.76149C23.8102 5.9007 23.7545 6.1142 23.7266 6.26271L23.6431 6.75459C23.6338 6.77315 23.6338 6.77316 23.6338 6.79176L23.6245 6.81959C23.6338 6.89384 23.6153 7.07022 23.5689 7.12587C23.5781 7.22795 23.5317 7.42289 23.5132 7.52497C23.4947 7.63635 23.4204 8.17466 23.3833 8.22105C23.3925 8.3046 23.3276 8.75009 23.2812 8.80583C23.2905 8.85222 23.244 9.23275 23.1976 9.28844C23.2162 9.40909 23.1048 9.86392 23.0862 10.031C23.0584 10.1331 23.0491 10.2445 23.0306 10.3465L22.9656 10.6714C22.9749 10.7178 22.9191 11.1912 22.8635 11.2654C22.882 11.3397 22.8542 11.516 22.8078 11.5717C22.8171 11.6552 22.7893 11.748 22.78 11.8409L22.6779 12.3513C22.6872 12.4163 22.6593 12.6298 22.6222 12.6762C22.6315 12.769 22.5851 13.0939 22.5386 13.1588C22.548 13.2516 22.5201 13.3537 22.5015 13.4466C22.4922 13.5116 22.4737 13.6786 22.4366 13.725C22.4458 13.7807 22.4366 13.8271 22.4273 13.8828C22.4273 13.9107 22.418 13.9385 22.4087 13.9664C22.3994 14.022 22.4087 13.9942 22.3809 14.0313C22.3902 14.0963 22.3809 14.1334 22.3716 14.1891C22.3716 14.2077 22.3623 14.2448 22.3623 14.2634C22.353 14.3191 22.3623 14.2912 22.3344 14.3284L22.2788 14.7646C22.2417 14.876 22.3159 14.6718 22.2695 14.7924C22.2695 14.7924 22.2602 14.811 22.2602 14.8017C22.2602 14.8017 22.2602 14.811 22.2509 14.811C22.2602 14.8667 22.2509 14.9131 22.2416 14.9688L22.2045 15.108C22.223 15.1823 22.1581 15.5721 22.1209 15.6278C22.1302 15.7206 22.0653 16.1568 22.0189 16.2126C22.0282 16.3053 21.9817 16.6488 21.9353 16.7044C21.9446 16.7787 21.926 16.9458 21.8889 17.0015C21.8982 17.085 21.8704 17.1871 21.8517 17.2799L21.7868 17.6883C21.7775 17.7533 21.7404 18.0132 21.7125 18.0689C21.7311 18.1617 21.694 18.2824 21.6754 18.3844C21.6568 18.4773 21.6568 18.6072 21.6104 18.6722C21.6197 18.7558 21.5919 18.8486 21.5826 18.9321C21.5732 19.0064 21.564 19.1177 21.5269 19.1641C21.5454 19.2755 21.4805 19.5075 21.4619 19.6282C21.4433 19.7488 21.4434 19.9716 21.3784 20.0551C21.3877 20.1479 21.3412 20.4913 21.2948 20.547C21.3041 20.6306 21.2298 21.0946 21.1927 21.141C21.202 21.2524 21.1371 21.5587 21.1185 21.6886C21.0999 21.8279 21.1277 21.8464 20.9885 21.8557H3.53906V21.8464C2.98215 21.8464 2.42527 21.8464 1.87766 21.8557H0.884521C0.893783 21.7814 0.912347 21.6979 0.930951 21.6143L1.00521 21.1317C1.01447 21.0946 1.03303 20.9275 1.05164 20.909C1.05164 20.8533 1.11659 20.4263 1.13519 20.3985C1.13519 20.3335 1.15372 20.2407 1.16302 20.185C1.36722 18.997 1.20945 20.0272 1.45078 18.4586L1.4786 18.4864L1.47852 18.4866ZM5.7109 20.1016H8.84809C9.82267 15.303 11.1221 7.65495 11.9853 2.63364L8.876 2.6336C8.91313 3.73808 5.85949 19.2755 5.72024 20.1109L5.71094 20.1016H5.7109ZM13.5631 15.0245C13.5353 15.0895 13.526 15.2102 13.5167 15.2937C13.5074 15.3772 13.4703 15.4794 13.4703 15.5722C13.4703 15.6278 13.4424 15.7021 13.4331 15.7578C13.4238 15.8228 13.4053 15.9063 13.396 15.9805C13.3774 16.0084 13.331 16.2961 13.331 16.3611C13.3032 16.3982 13.2289 16.8716 13.2289 16.9551L13.1269 17.4749C13.1083 17.6141 13.0619 17.7255 13.0804 17.9018C13.1083 18.1803 13.3496 18.3566 13.6466 18.3102C13.8693 18.2731 13.8508 18.2545 13.9993 18.171C14.055 18.0782 14.2778 17.8925 14.2592 17.7441C14.2963 17.6884 14.3612 17.2614 14.3705 17.1964C14.3984 17.0758 14.4726 16.7045 14.4634 16.6117L14.4726 16.5838C14.4726 16.5745 14.5469 16.3611 14.5283 16.2311L14.5561 16.1383C14.5654 16.1105 14.5654 16.0734 14.5747 16.0362C14.584 15.9712 14.6118 15.897 14.5932 15.832C14.6025 15.8135 14.6025 15.832 14.6118 15.7949L14.6303 15.7113C14.6396 15.6464 14.6396 15.6464 14.6396 15.5907C14.686 15.5351 14.7046 15.2844 14.7231 15.1916C14.7417 15.071 14.8067 14.8111 14.7974 14.709L14.8624 14.4305C14.8809 14.3284 14.9088 14.2263 14.8995 14.1335C14.9274 14.0964 14.9274 14.0407 14.918 13.985C15.0016 13.855 14.8716 13.3539 14.8253 13.2146C14.7788 13.0847 14.5375 12.6948 14.4633 12.6577C14.4447 12.6113 14.2406 12.3329 14.1941 12.305C14.1756 12.2493 14.1941 12.2957 14.157 12.2493L13.8971 11.9245L13.8322 11.8224C13.7486 11.7203 13.3588 11.2098 13.3216 11.2005C13.3031 11.1356 13.1453 10.9499 13.0896 10.8849C13.0432 10.8293 12.8854 10.6065 12.8483 10.5879C12.8298 10.5508 12.6069 10.2352 12.5698 10.2167C12.5234 10.1053 12.4399 10.0032 12.3749 9.89183C12.3471 9.8454 12.3099 9.78045 12.2821 9.71545C12.2636 9.66906 12.2357 9.57624 12.2078 9.53912C12.1707 9.32561 12.1522 9.22353 12.1614 8.99151L12.245 8.39751L12.3842 7.61783C12.412 7.48792 12.4863 7.15377 12.4678 7.04239C12.5142 6.9774 12.5513 6.68042 12.5513 6.58756C12.5885 6.54113 12.6627 6.06777 12.6534 6.00282C12.7184 5.9007 12.7462 5.46447 12.7926 5.3067C12.8111 5.17679 12.8854 4.88903 12.8762 4.77769C12.8947 4.75917 12.8855 4.77769 12.8947 4.74057L12.9318 4.58279C12.9504 4.5178 12.9783 4.44355 12.969 4.37859C12.9968 4.34147 12.9875 4.36003 13.0061 4.3043C13.0154 4.27647 13.0247 4.25791 13.034 4.23004C13.0525 4.17439 13.0711 4.13726 13.0711 4.07227C13.1175 4.02584 13.1732 3.86807 13.201 3.79381L13.3495 3.51536C13.396 3.48749 13.4424 3.41324 13.4795 3.36685C13.5259 3.30185 13.563 3.27403 13.6187 3.2276C13.6651 3.19047 13.925 3.01413 13.9343 2.99557C14.0178 2.96775 14.1106 2.90279 14.2034 2.86567C14.2963 2.8285 14.3798 2.79137 14.4819 2.76354C14.6954 2.69859 14.881 2.67077 15.113 2.65216C15.7721 2.63364 16.4496 2.65216 17.1179 2.65216C17.7583 2.65216 18.3616 2.70781 18.705 3.07909C18.7793 3.15334 18.937 3.36685 18.9835 3.49679C19.0206 3.60818 19.067 3.69169 19.0948 3.81238C19.1227 3.94228 19.132 4.06297 19.132 4.22074C19.132 4.27643 19.1227 4.37855 19.1134 4.45277C19.1041 4.52702 19.0856 4.61984 19.0856 4.7034C19.0763 4.78695 19.0485 4.88903 19.0392 4.97255C19.0299 5.06537 19.0113 5.19532 18.9835 5.26957C18.9835 5.33452 18.9557 5.43665 18.9464 5.5109C18.9279 5.60368 18.9092 5.69654 18.8999 5.78006C18.8907 5.80788 18.8536 6.02138 18.8536 6.05851C18.8443 6.12351 18.8257 6.19772 18.8071 6.28124C18.7886 6.37405 18.77 6.45761 18.77 6.55039C18.7421 6.63395 18.7329 6.74533 18.7143 6.84741C18.6958 6.96805 18.6772 7.06091 18.6587 7.17226C18.6587 7.23725 18.6215 7.39498 18.6122 7.45071C18.6029 7.5064 18.6029 7.52497 18.5937 7.58996C18.5844 7.63635 18.5658 7.69204 18.5658 7.75699C18.5566 7.82199 18.538 7.9055 18.5194 7.97976C18.5009 8.06332 18.4823 8.15609 18.4823 8.23035C18.473 8.28604 18.4545 8.3603 18.4359 8.43455L15.9577 8.44385C15.9577 8.26752 16.0691 7.95193 16.0598 7.78482C16.1062 7.72917 16.1526 7.37642 16.1433 7.29294C16.1619 7.26507 16.1526 7.29294 16.1619 7.24651L16.2361 6.75459C16.2918 6.6896 16.3382 6.16059 16.3754 6.03991C16.3939 5.90996 16.4496 5.71506 16.4403 5.59438C16.4775 5.53873 16.4775 5.39948 16.5053 5.33452L16.5146 5.24171L16.5424 5.12106C16.6167 4.75909 16.4775 4.4435 16.0969 4.4435C15.7907 4.4435 15.475 4.62914 15.3823 4.88904C15.3637 4.93547 15.3637 4.96329 15.3451 5.00042C15.3266 5.09324 15.2987 5.22318 15.2987 5.316C15.2802 5.39956 15.2708 5.45521 15.2523 5.54803C15.2337 5.64085 15.2151 5.7151 15.2151 5.81718L15.178 5.95639L15.1501 6.12346C15.1316 6.24411 15.1038 6.35549 15.0945 6.46691C15.0667 6.48544 15.076 6.54117 15.0667 6.58756C15.0574 6.65251 15.0481 6.67112 15.0388 6.72677C15.0295 6.81032 14.9924 6.93097 14.9924 7.01453C14.9738 7.08878 14.9645 7.15373 14.9459 7.24655C14.9274 7.33933 14.9088 7.41363 14.9088 7.51571C14.881 7.55283 14.8439 7.82199 14.8346 7.91481C14.8253 7.97976 14.8067 8.23965 14.8253 8.30465C14.8438 8.3603 14.8067 8.32317 14.8531 8.35108C14.8067 8.48098 14.9738 8.80587 15.048 8.93581C15.0945 9.01007 15.0388 8.96364 15.113 9.00081C15.1037 9.0472 15.1037 9.01007 15.113 9.0472C15.113 9.06576 15.1315 9.08432 15.1408 9.10289L15.5864 9.70619C15.6235 9.73401 15.5585 9.70619 15.6235 9.73402C15.6235 9.78967 15.8462 10.0496 15.8927 10.0867L16.2268 10.4766C16.2268 10.4859 16.2082 10.4859 16.2546 10.5508L16.6723 11.0706L16.9044 11.3584C16.9693 11.4419 16.9415 11.4234 16.9971 11.4512C17.0064 11.5068 17.1364 11.6646 17.1735 11.7296C17.2478 11.841 17.3127 11.9988 17.3684 12.0266C17.3499 12.0823 17.3591 12.0452 17.3869 12.1102C17.4055 12.138 17.4055 12.1473 17.4241 12.1937L17.5447 12.5371C17.5819 12.6764 17.554 12.6857 17.6004 12.7228C17.554 12.8342 17.5819 13.0013 17.5819 13.1219C17.5726 13.1962 17.5633 13.2147 17.5633 13.3076C17.5448 13.3354 17.4798 13.7902 17.4798 13.8644C17.4519 13.8923 17.4798 13.8552 17.4612 13.9016C17.4612 13.9109 17.4519 13.9666 17.4519 13.9666C17.4427 14.0315 17.4334 14.0686 17.4334 14.1243C17.4149 14.1615 17.3498 14.542 17.3498 14.5977C17.3313 14.672 17.3127 14.7834 17.3034 14.8762C17.2942 14.9783 17.257 15.0711 17.257 15.1917C17.2385 15.2103 17.2385 15.2567 17.2292 15.2938C17.2199 15.3495 17.2199 15.3774 17.2106 15.4237C17.1921 15.5166 17.1828 15.6187 17.1642 15.7022C17.1642 15.795 17.1178 15.925 17.1178 16.0364C17.0993 16.0642 17.0714 16.2499 17.0714 16.3055C17.0528 16.4355 17.0157 16.5654 17.0064 16.7046C16.9878 16.751 16.9414 17.0295 16.9414 17.1037C16.9136 17.1222 16.9136 17.1965 16.9136 17.2337C16.9043 17.2986 16.895 17.3264 16.8857 17.3914C16.8672 17.5028 16.8393 17.6235 16.8301 17.7348C16.8115 17.7813 16.7929 17.8833 16.7836 17.939C16.7651 18.004 16.7372 18.1061 16.728 18.1804L16.5702 18.6259C16.4866 18.8301 16.3845 18.9507 16.3474 19.0436C16.3289 19.0529 16.2175 19.2106 16.1897 19.2478C16.1525 19.2942 16.1432 19.3035 16.1061 19.3498L16.004 19.4613C15.9298 19.5633 15.6328 19.7768 15.4936 19.8325C15.4193 19.8604 15.3543 19.8789 15.28 19.9253C15.1965 19.9346 14.8716 20.046 14.5747 20.0553L13.7486 20.0738C13.5908 20.0738 13.4887 20.0923 13.3495 20.0923L12.2728 20.0924C12.1708 20.0924 12.1522 20.0739 12.0593 20.0739C12.0129 20.0739 11.883 20.046 11.8274 20.0367C11.7902 20.0275 11.7624 20.0275 11.7159 20.0182C11.6695 20.0089 11.651 19.9904 11.5953 19.9904C11.2704 19.9161 11.1776 19.8047 11.0105 19.6841C10.9827 19.6656 11.0012 19.6748 10.9827 19.6656C10.9549 19.6191 10.9827 19.6562 10.9456 19.6099C10.9362 19.5913 10.927 19.5913 10.9177 19.5727L10.6021 18.9787C10.5928 18.8952 10.565 18.821 10.5557 18.7374C10.5464 18.6446 10.565 18.5611 10.5464 18.4776C10.5743 18.4219 10.6114 17.9949 10.6207 17.8928C10.6392 17.7443 10.7135 17.438 10.7043 17.3173C10.7414 17.2616 10.7692 17.0667 10.7599 17.0018L10.7692 16.9739C10.7692 16.9739 10.8528 16.6676 10.8342 16.547C10.8713 16.5005 10.9641 15.953 10.9548 15.8694L10.9919 15.7302C11.0012 15.6652 11.0198 15.6281 11.0012 15.5724L11.0198 15.5167C11.0198 15.5075 11.0291 15.4703 11.0291 15.4611C11.0384 15.424 11.0384 15.3868 11.0476 15.3497C11.0569 15.2754 11.0848 15.1919 11.0755 15.1176C11.1219 15.0527 11.1682 14.7464 11.159 14.6536C11.1961 14.5979 11.2704 14.0781 11.2889 13.9667C11.3446 13.9203 12.4584 13.9482 12.5234 13.9482H13.7857L13.6929 14.4958L13.6558 14.7093C13.6373 14.8114 13.6001 14.9135 13.6001 15.0249H13.563L13.5631 15.0245Z" fill="black"/>
</g>
<defs>
<clipPath id="clip0_47_562">
<rect width="50.4733" height="20.9114" fill="white" transform="translate(0.884521 0.944336)"/>
</clipPath>
</defs>
</svg>
