<svg width="20" height="21" viewBox="0 0 20 21" fill="none" xmlns="http://www.w3.org/2000/svg">
<path fill-rule="evenodd" clip-rule="evenodd" d="M10.8757 0.462205C10.4935 0.654187 10.4594 1.19574 10.8148 1.42858C10.8694 1.46442 11.1376 1.54337 11.4106 1.60405C12.246 1.78968 12.6583 1.92624 13.4066 2.26522C14.4785 2.75076 15.4263 3.42568 16.3111 4.33344C17.5883 5.64378 18.4259 7.21906 18.8165 9.04552C18.9219 9.53854 18.948 9.59981 19.1006 9.71335C19.3445 9.89482 19.6481 9.8776 19.846 9.67101C20.0242 9.4851 20.0361 9.36386 19.9287 8.83621C19.1475 5.00076 16.2461 1.82996 12.4908 0.707587C12.063 0.579755 11.2386 0.393926 11.0995 0.394043C11.0509 0.394043 10.9502 0.424735 10.8757 0.462205ZM3.35257 1.63677C2.85354 1.79642 2.43908 2.14358 1.27102 3.38027C0.434309 4.26621 0.204936 4.7125 0.127192 5.60604C0.0166922 6.87618 0.444904 8.4843 1.3892 10.3456C1.78878 11.1332 1.96775 11.4386 2.47363 12.1957C4.38298 15.0533 6.88557 17.3319 9.84273 18.9051C11.5186 19.7967 12.9346 20.2546 14.2246 20.322C15.1365 20.3696 15.9465 20.1146 16.555 19.5883C16.6264 19.5265 17.0739 19.0767 17.5495 18.5888C18.3369 17.7809 18.4289 17.6723 18.5788 17.3732C18.8731 16.7861 18.8739 16.2624 18.5814 15.6622C18.4241 15.3394 18.384 15.295 16.9748 13.8849C15.6069 12.5163 15.5136 12.4312 15.2351 12.2986C14.6386 12.0148 14.0254 12.0423 13.4469 12.3788C13.3498 12.4353 12.9078 12.8398 12.4648 13.2777L11.6593 14.0739L11.2714 13.8685C9.55922 12.9618 7.30828 10.6956 6.47173 9.03621L6.32212 8.73953L7.07089 7.98457C7.86912 7.17972 8.06099 6.93714 8.18987 6.57C8.36382 6.07449 8.32876 5.5977 8.08151 5.09662C7.95399 4.83819 7.82222 4.69458 6.49716 3.36991C4.98896 1.86209 4.86751 1.76055 4.40907 1.62442C4.13008 1.54158 3.63203 1.54738 3.35257 1.63677ZM4.22558 2.77004C4.46952 2.88467 6.98625 5.41355 7.09391 5.65216C7.29633 6.10086 7.21118 6.24882 6.14132 7.30751C5.66508 7.7788 5.24493 8.22454 5.2077 8.29808C5.09833 8.51398 5.14475 8.90861 5.32447 9.29098C5.82524 10.3564 6.63656 11.4304 7.87298 12.6648C8.88765 13.6778 9.93099 14.4622 10.986 15.0055C11.4272 15.2327 11.4871 15.2531 11.7066 15.2512C11.8602 15.25 11.9949 15.2236 12.0823 15.1777C12.1573 15.1384 12.613 14.7165 13.095 14.2402C13.577 13.7639 14.0312 13.3438 14.1042 13.3065C14.299 13.2073 14.6398 13.2395 14.8363 13.3757C15.1118 13.5666 17.4801 15.9806 17.5738 16.166C17.688 16.392 17.6878 16.6469 17.5732 16.8721C17.4892 17.0375 16.2342 18.3537 15.8023 18.7294C15.1779 19.2725 14.3007 19.338 12.8613 18.9492C11.8099 18.6651 10.1869 17.8783 8.84952 17.0044C6.00511 15.1457 3.40375 12.1341 2.08854 9.17713C1.24298 7.27612 1.03452 5.81851 1.47863 4.91211C1.55867 4.74876 1.79649 4.48207 2.48033 3.78877C3.04783 3.21345 3.44145 2.84584 3.55238 2.78761C3.77034 2.67322 4.00649 2.66706 4.22558 2.77004ZM10.6895 4.09398C10.4232 4.25636 10.329 4.60757 10.4837 4.86132C10.5931 5.04065 10.6883 5.08898 11.1592 5.20389C12.2394 5.4675 13.1058 5.96262 13.8439 6.73819C14.5386 7.46818 15.0106 8.34591 15.2182 9.29394C15.2987 9.66123 15.3553 9.78443 15.4936 9.89318C15.8091 10.1414 16.3153 9.95842 16.3882 9.56998C16.4436 9.27462 16.151 8.25925 15.8156 7.58324C14.9466 5.83152 13.371 4.57002 11.4786 4.11088C11.0061 3.99625 10.8551 3.99302 10.6895 4.09398Z" fill="#F88241"/>
</svg>
