<svg width="74" height="39" viewBox="0 0 74 39" fill="none" xmlns="http://www.w3.org/2000/svg">
<path d="M26.4055 28.9919V29.2666H24.8702V28.9919L25.2465 28.8903L27.0415 24.1791H28.1327L29.9201 28.8903L30.304 28.9919V29.2666H28.0575V28.9919L28.6407 28.8903L28.1591 27.5846H26.2211L25.7583 28.8903L26.4055 28.9919ZM27.207 24.9392L26.3754 27.1707H28.0161L27.207 24.9392Z" fill="#333333"/>
<path d="M42.9031 29.2666V28.9882L43.5503 28.8903V24.5968L42.9031 24.4952V24.2205H48.5965V24.4952L47.9455 24.5968V28.8903L48.5965 28.9882V29.2666H46.1092V28.9882L46.7564 28.8903V24.6344H44.7357V28.8903L45.3829 28.9882V29.2666H42.9031Z" fill="#333333"/>
<path fill-rule="evenodd" clip-rule="evenodd" d="M11.125 2.89072C9.92863 4.39607 8.95036 6.05445 8.95036 6.57573C8.95036 7.30228 8.57899 7.19964 7.36318 6.1378C5.9667 4.91859 5.72514 4.87381 5.35578 5.76955C5.12493 6.32877 4.93556 7.48267 4.93556 8.33301C4.93556 9.62749 4.70338 9.81099 3.51098 9.45891C2.22826 9.08008 2.11651 9.23187 2.3922 10.9804C2.64111 12.5555 2.49457 12.8615 1.61734 12.6027C0.750815 12.3471 0.513942 12.7962 0.424948 14.867C0.293798 17.9312 1.07267 19.5118 2.99508 20.0791C4.01819 20.3808 4.20086 20.68 3.66488 21.1783C3.25939 21.5552 2.92817 22.5393 2.92817 23.3666C2.92817 24.6381 3.15969 24.8036 4.43372 24.439C5.2621 24.202 6.84259 23.7778 7.94666 23.4966C9.8577 23.0102 9.81688 22.9828 7.11024 22.9219C4.26108 22.8584 3.68094 22.4074 4.94025 21.2367C5.39258 20.8162 4.95229 20.1556 3.60199 19.2275C2.03756 18.1526 1.58991 17.3645 1.58991 15.6862C1.58991 13.7983 1.80001 13.5277 3.26274 13.5277C5.10285 13.5277 5.51503 12.6233 3.93187 12.0584C3.37983 11.8619 2.92817 11.4177 2.92817 11.0725C2.92817 10.6713 3.53373 10.7005 4.60368 11.154C6.7449 12.0609 7.36719 11.4675 6.38223 9.45767C4.94226 6.51974 5.47355 5.57983 7.33373 7.77379C9.47027 10.2949 10.2886 10.3323 10.2886 7.90939C10.2886 6.87182 10.8025 4.98266 11.4302 3.71058L12.5717 1.39781L12.7798 3.886C13.2462 9.47384 14.0987 10.3733 16.3777 7.68048C17.0723 6.85938 18.5544 5.89147 19.6705 5.53006C21.6645 4.88376 21.6819 4.89558 20.6782 6.228C18.8488 8.65585 19.3554 10.2813 22.1657 11.0066C25.5555 11.8818 29.1936 11.8289 30.572 10.884C31.9518 9.93789 33.2071 6.23298 32.3205 5.72352C31.9799 5.5282 31.7008 6.06378 31.7008 6.91536C31.7008 10.168 28.4676 11.2579 23.9844 9.51614C21.338 8.4879 21.1051 7.51315 22.9794 5.29804L24.2949 3.74355L21.3159 4.26109C19.6772 4.54537 17.4356 5.21158 16.3349 5.74032C14.4105 6.66592 14.3208 6.64851 14.0003 5.29431C13.817 4.51986 13.5841 3.04623 13.4831 2.01986L13.2997 0.153717L11.125 2.89072ZM60.4635 2.701C60.4487 6.21245 59.716 7.05968 57.714 5.87903C56.8394 5.36336 55.0703 4.75313 53.7822 4.52297C52.4941 4.29219 50.8534 3.94882 50.1361 3.75848C49.0273 3.46425 49.1063 3.71556 50.666 5.438C51.6744 6.55209 52.3891 7.7713 52.2546 8.14639C52.1201 8.52211 50.6078 9.23435 48.8942 9.72888C45.2447 10.7826 42.4069 10.0169 42.4069 7.97906C42.4069 5.80439 41.0667 5.91573 40.0509 8.17563C37.7919 13.2024 39.3671 16.1664 44.6934 16.9085L47.8276 17.3458L42.3976 20.7242C39.4112 22.5822 36.8123 24.1025 36.6216 24.1025C36.4316 24.1025 35.0204 23.1564 33.4861 22.0006C31.9524 20.8442 29.4171 19.2991 27.8533 18.5663C26.2889 17.8341 25.0122 17.1704 25.0149 17.092C25.0175 17.013 26.5592 16.8961 28.4402 16.832C34.1913 16.6355 36.4068 13.4705 34.0194 8.86237C33.0973 7.08269 33.102 7.86523 34.0314 10.8734C34.6209 12.7831 31.7811 15.3939 29.1133 15.3939C28.0253 15.3939 24.7747 14.974 21.89 14.4608C14.2967 13.1103 11.8865 13.2298 9.92394 15.0548C7.8028 17.0261 7.71447 18.3648 9.78677 17.1225C12.2084 15.6713 14.2385 15.4256 18.2406 16.1005C22.4053 16.8028 26.1002 18.5868 31.8561 22.6768L35.6915 25.402L32.4757 29.2624C30.7065 31.3854 28.57 34.2419 27.7275 35.6104L26.1952 38.0986L28.0895 35.9214C29.1314 34.724 31.575 32.2047 33.5202 30.323L37.0566 26.9017L40.2423 30.0119C41.9941 31.7226 44.421 34.2419 45.6348 35.6104L47.8423 38.0986L45.3638 34.3663C44.0008 32.3135 41.8522 29.5143 40.5889 28.1458L38.2918 25.6576L41.0486 23.4394C45.5639 19.8067 51.0019 17.069 55.3653 16.233C59.7789 15.3876 62.1336 15.6321 63.9864 17.1287C65.037 17.9778 65.1574 17.9735 65.1574 17.0896C65.1574 15.7378 63.4157 14.2356 61.2678 13.7342C60.2848 13.5047 56.272 13.8132 52.3516 14.4191C48.2812 15.0486 44.314 15.3354 43.1035 15.0884C40.16 14.4875 39.2547 12.4615 40.3915 9.01975L41.2654 6.37418L41.8228 8.2397C42.1293 9.26545 42.8954 10.4554 43.5251 10.8834C44.9162 11.8289 48.5516 11.8824 51.9421 11.0066C54.7591 10.2794 55.2583 8.65523 53.4162 6.20996C52.4566 4.93663 52.4687 4.8651 53.5835 5.23957C55.7675 5.97296 58.4661 7.99897 58.4661 8.90467C58.4661 9.39484 58.7565 9.79544 59.1118 9.79544C60.2467 9.79544 61.1413 7.47832 61.1968 4.39359L61.251 1.39781L62.5451 3.886C63.2564 5.2545 63.7362 7.14428 63.6104 8.08481C63.3059 10.3652 64.4214 10.2533 66.6449 7.77939C68.6603 5.53753 69.1374 6.47247 67.4833 9.42159C66.226 11.6628 66.6549 12.1132 69.1976 11.2212C71.5644 10.3907 71.6574 10.5774 69.7149 12.2594L68.2508 13.5277H70.384C72.3238 13.5277 72.5179 13.7031 72.5179 15.4554C72.5179 16.7984 71.9043 17.9156 70.4931 19.1411C69.3241 20.1562 68.7587 21.0657 69.1548 21.2933C69.5322 21.5104 69.8413 22.023 69.8413 22.4329C69.8413 22.9293 68.7801 23.1259 66.663 23.022L63.4846 22.8653L66.8303 23.7678C68.6704 24.2636 70.4021 24.6823 70.6778 24.6972C71.5931 24.7469 71.1977 22.6637 70.0722 21.508C69.0625 20.4704 69.0598 20.3702 70.0461 20.3702C72.1599 20.3702 73.8628 17.8485 73.6862 14.979C73.5497 12.7589 73.3242 12.3626 72.3586 12.645C71.3676 12.9343 71.2586 12.6929 71.6212 11.0078C72.0107 9.1989 71.925 9.06702 70.6095 9.45518C69.373 9.82032 69.1709 9.63495 69.1622 8.12649C69.1562 7.16294 68.8765 5.96923 68.5392 5.47408C68.032 4.72887 67.7128 4.82031 66.677 6.00966L65.4271 7.4441L64.1959 4.90615C63.5187 3.51028 62.4039 1.89607 61.7188 1.32005C60.525 0.314827 60.4728 0.372055 60.4635 2.701ZM10.7349 18.2969C9.86573 19.1044 10.3127 19.4851 12.296 19.6256C13.4001 19.704 14.3034 19.5043 14.3034 19.1815C14.3034 18.8593 14.8307 18.4674 15.4744 18.3106C16.1181 18.1545 15.4162 17.994 13.9133 17.9542C12.4104 17.9144 10.9798 18.0687 10.7349 18.2969ZM58.2988 18.3007C59.1265 18.4599 59.8044 18.84 59.8044 19.1442C59.8044 19.449 60.707 19.6393 61.8104 19.5678C65.0437 19.3575 63.6847 18.2018 60.0867 18.1022C58.2754 18.0519 57.4711 18.1414 58.2988 18.3007ZM16.6715 20.9655C15.5092 22.1592 15.5273 22.1686 17.5882 21.4451C20.1851 20.5338 21.9081 21.3524 22.2039 23.6385C22.4514 25.5506 20.2761 27.2183 18.1074 26.7792C16.9251 26.5397 16.8374 26.6106 17.6491 27.1493C19.1754 28.1626 21.33 27.9648 22.5638 26.6971C23.965 25.2583 23.9951 22.0043 22.6201 20.7254C21.1687 19.3768 18.0974 19.5006 16.6715 20.9655ZM51.6048 20.5257C47.5559 23.4008 52.3175 29.8994 56.4587 27.1493C57.2704 26.6106 57.1827 26.5397 56.0004 26.7792C53.8317 27.2183 51.6564 25.5506 51.9039 23.6385C52.1997 21.3524 53.9227 20.5338 56.5196 21.4451C58.5805 22.1686 58.5986 22.1592 57.4363 20.9655C56.092 19.5846 53.2335 19.3687 51.6048 20.5257ZM7.67767 26.6834C6.06774 30.9767 7.55522 35.323 11.1846 36.9322C15.2931 38.7536 18.458 36.8203 18.2513 32.6152C18.1904 31.3649 18.1476 31.3805 17.722 32.8018C17.4671 33.6522 16.4573 34.7656 15.4771 35.277C13.841 36.131 13.5433 36.1018 11.8249 34.9155C9.10024 33.0351 8.18688 31.0539 8.48932 27.6793C8.63453 26.0545 8.67668 24.7246 8.583 24.7246C8.48932 24.7246 8.08182 25.606 7.67767 26.6834ZM65.5576 26.9341C66.3224 31.7823 62.695 36.4632 58.8656 35.5699C57.8237 35.3267 56.994 34.6232 56.8134 33.8307C56.6467 33.0992 56.3838 31.9403 56.2279 31.256C56.072 30.5718 55.91 31.2013 55.8672 32.6556C55.7809 35.6054 57.4691 37.7875 59.8378 37.7875C61.9978 37.7875 64.78 36.1845 65.85 34.3234C67.0103 32.3061 67.0665 27.3975 65.9497 25.6489C65.2839 24.6082 65.2223 24.8104 65.5576 26.9341Z" fill="#333333"/>
</svg>
