<svg width="24" height="24" viewBox="0 0 24 24" fill="none" xmlns="http://www.w3.org/2000/svg">
<path d="M14.1867 5.9874C15.1634 6.17796 16.061 6.65565 16.7647 7.35933C17.4684 8.06301 17.9461 8.96066 18.1367 9.9374L14.1867 5.9874ZM14.1867 1.9874C16.2159 2.21283 18.1082 3.12157 19.5529 4.5644C20.9975 6.00724 21.9087 7.89841 22.1367 9.9274L14.1867 1.9874ZM21.1367 17.9074V20.9074C21.1378 21.1859 21.0807 21.4616 20.9692 21.7167C20.8576 21.9719 20.694 22.201 20.4887 22.3893C20.2835 22.5775 20.0412 22.7209 19.7774 22.8101C19.5136 22.8993 19.234 22.9325 18.9567 22.9074C15.8795 22.573 12.9237 21.5215 10.3267 19.8374C7.91048 18.3021 5.86199 16.2536 4.32665 13.8374C2.63663 11.2286 1.58489 8.25839 1.25665 5.1674C1.23166 4.89086 1.26453 4.61216 1.35315 4.34902C1.44178 4.08588 1.58422 3.84409 1.77142 3.63902C1.95861 3.43395 2.18646 3.27011 2.44044 3.15792C2.69443 3.04573 2.96899 2.98766 3.24665 2.9874H6.24665C6.73196 2.98262 7.20244 3.15447 7.57041 3.47093C7.93838 3.78738 8.17873 4.22684 8.24665 4.7074C8.37327 5.66746 8.6081 6.61012 8.94665 7.5174C9.0812 7.87532 9.11031 8.26431 9.03056 8.63828C8.9508 9.01224 8.76552 9.35551 8.49665 9.6274L7.22665 10.8974C8.65021 13.4009 10.7231 15.4738 13.2267 16.8974L14.4967 15.6274C14.7685 15.3585 15.1118 15.1732 15.4858 15.0935C15.8597 15.0137 16.2487 15.0429 16.6067 15.1774C17.5139 15.5159 18.4566 15.7508 19.4167 15.8774C19.9024 15.9459 20.3461 16.1906 20.6632 16.5649C20.9803 16.9392 21.1488 17.417 21.1367 17.9074Z" stroke="#688223" stroke-width="2" stroke-linecap="round" stroke-linejoin="round"/>
</svg>
